<svg width="181" height="172" viewBox="0 0 181 172" fill="none" xmlns="http://www.w3.org/2000/svg">
<path d="M104.104 0C82.5144 0 65.0217 17.4925 65.0219 39.0822C65.0219 60.6721 82.5142 78.1873 104.104 78.1873C125.694 78.1873 143.209 60.6721 143.209 39.0822C143.209 17.4925 125.694 -1.98619e-05 104.104 0ZM104.104 9.48557C120.455 9.48557 133.724 22.7313 133.724 39.0822C133.724 55.4333 120.455 68.7018 104.104 68.7018C87.7532 68.7018 74.5073 55.4333 74.5073 39.0822C74.5073 22.7313 87.753 9.48557 104.104 9.48557Z" fill="#FFB827"/>
<path d="M76.8961 26.2278C55.3064 26.2278 37.791 43.743 37.791 65.3329C37.791 86.9225 55.3064 104.415 76.8961 104.415C98.4858 104.415 115.978 86.9225 115.978 65.3329C115.978 43.7432 98.4858 26.2278 76.8961 26.2278ZM76.8961 35.7134C93.247 35.7134 106.493 48.9817 106.493 65.3329C106.493 81.6838 93.247 94.9295 76.8961 94.9297C60.5452 94.9297 47.2767 81.6838 47.2767 65.3329C47.2767 48.9817 60.5452 35.7134 76.8961 35.7134Z" fill="#FFE700"/>
<path d="M129.323 54.405C124.123 62.9379 114.822 68.7018 104.104 68.7018C97.1517 68.7018 90.8444 66.1953 85.7943 62.1806C85.7017 62.2326 85.6135 62.265 85.5208 62.3172C84.9911 62.6161 84.447 62.9216 83.879 63.2293C83.2676 63.5606 81.3474 64.5719 81.006 64.7571C80.9605 64.7819 80.9571 64.8023 80.9148 64.8256C79.8045 65.8377 78.5808 66.6417 77.3804 67.4932C84.3753 74.085 93.7347 78.1873 104.104 78.1873C117.805 78.1873 129.841 71.1206 136.825 60.4476C135.627 59.6688 134.429 58.901 133.404 58.0761C132.004 56.9487 130.837 55.8943 129.597 54.6787C129.51 54.5939 129.415 54.4964 129.323 54.405Z" fill="#FFB827"/>
<path d="M0.517456 137.513V160.897C0.517456 162.89 2.13277 164.505 4.12535 164.505H6.28023H8.23807V160.811H7.41307C6.78867 160.811 6.28023 160.302 6.28023 159.678V137.513H0.517456Z" fill="black"/>
<path d="M41.4233 137.513V164.505H47.223V156.095L53.0719 164.505H60.0415L52.407 153.521L59.9307 145.862H52.9734L47.223 151.699V137.513H41.4233Z" fill="black"/>
<path d="M69.7568 137.513V164.505H75.5565V156.095L81.4054 164.505H88.375L80.7405 153.521L88.2642 145.862H81.3069L75.5565 151.699V137.513H69.7568Z" fill="black"/>
<path d="M13.1723 137.514C11.4137 137.514 9.98804 138.948 9.98804 140.707C9.98804 142.465 11.4137 143.883 13.1723 143.883C14.9309 143.883 16.3564 142.465 16.3564 140.707C16.3564 138.948 14.9309 137.514 13.1723 137.514ZM10.9821 145.863C10.5944 145.863 10.279 146.178 10.279 146.566V163.804C10.279 164.192 10.5944 164.507 10.9821 164.507H15.3704C15.7581 164.507 16.0735 164.192 16.0735 163.804V146.566C16.0735 146.178 15.7581 145.863 15.3704 145.863H10.9821Z" fill="black"/>
<path d="M20.1702 145.862V148.386V151.637V164.505H25.9329V154.457C25.9329 152.9 27.1953 151.637 28.7527 151.637C30.3101 151.637 31.5725 152.9 31.5725 154.457V164.505H37.3475V151.637C37.3475 148.448 34.7619 145.862 31.5725 145.862H28.4571C27.065 145.862 25.9329 145.862 25.9329 145.862H20.1702Z" fill="black"/>
<path d="M169.029 145.862V164.505H174.853V151.699H180.481V146.299C180.481 146.299 180.504 146.075 180.389 145.97C180.273 145.866 180.171 145.868 180.018 145.881C177.13 146.117 174.853 148.541 174.853 151.489V145.862H169.029Z" fill="black"/>
<path d="M157.93 145.858C154.892 145.858 152.219 147.339 150.518 149.589C149.745 150.611 149.167 151.785 148.867 153.074C148.709 153.755 148.609 154.451 148.609 155.18C148.609 155.735 148.676 156.277 148.769 156.805C148.88 157.436 149.055 158.046 149.286 158.627C149.597 159.407 150.019 160.11 150.518 160.77C152.219 163.02 154.892 164.501 157.93 164.501C160.969 164.501 163.642 163.02 165.343 160.77C165.753 160.228 166.115 159.665 166.402 159.046C166.465 158.911 166.456 158.829 166.39 158.726C166.324 158.623 166.144 158.627 166.144 158.627H161.169C161.169 158.627 161.005 158.618 160.836 158.677C160.668 158.735 160.597 158.787 160.492 158.861C159.76 159.377 158.893 159.711 157.93 159.711C156.829 159.711 155.852 159.275 155.061 158.627C154.531 158.194 154.089 157.682 153.793 157.063C153.753 156.979 153.777 156.931 153.83 156.867C153.883 156.802 154.015 156.805 154.015 156.805H162.179H166.612C166.612 156.805 166.862 156.829 167.018 156.694C167.135 156.593 167.168 156.341 167.178 156.263C167.225 155.908 167.252 155.547 167.252 155.18C167.252 154.451 167.151 153.755 166.993 153.074C166.694 151.785 166.116 150.611 165.343 149.589C163.642 147.339 160.969 145.858 157.93 145.858ZM157.93 150.537C159.629 150.537 161.069 151.49 161.858 152.865C161.897 152.933 161.906 152.985 161.871 153.037C161.836 153.089 161.723 153.074 161.723 153.074H154.052C154.052 153.074 153.985 153.089 153.965 153.049C153.946 153.01 153.949 152.966 153.978 152.914C154.761 151.513 156.211 150.537 157.93 150.537Z" fill="black"/>
<path d="M117.237 145.858C114.198 145.858 111.525 147.339 109.824 149.589C109.051 150.611 108.473 151.785 108.174 153.074C108.015 153.755 107.915 154.451 107.915 155.18C107.915 155.735 107.982 156.277 108.075 156.805C108.186 157.436 108.361 158.046 108.592 158.627C108.903 159.407 109.325 160.11 109.824 160.77C111.525 163.02 114.198 164.501 117.237 164.501C120.275 164.501 122.948 163.02 124.649 160.77C125.059 160.228 125.421 159.665 125.708 159.046C125.771 158.911 125.762 158.829 125.696 158.726C125.63 158.623 125.45 158.627 125.45 158.627H120.475C120.475 158.627 120.311 158.618 120.143 158.677C119.974 158.735 119.904 158.787 119.798 158.861C119.067 159.377 118.199 159.711 117.237 159.711C116.135 159.711 115.159 159.275 114.367 158.627C113.838 158.194 113.395 157.682 113.099 157.063C113.059 156.979 113.083 156.931 113.136 156.867C113.189 156.802 113.321 156.805 113.321 156.805H121.485H125.918C125.918 156.805 126.168 156.829 126.324 156.694C126.441 156.593 126.474 156.341 126.484 156.263C126.531 155.908 126.558 155.547 126.558 155.18C126.558 154.451 126.458 153.755 126.299 153.074C126 151.785 125.422 150.611 124.649 149.589C122.948 147.339 120.275 145.858 117.237 145.858ZM117.237 150.537C118.935 150.537 120.375 151.49 121.165 152.865C121.204 152.933 121.212 152.985 121.177 153.037C121.142 153.089 121.029 153.074 121.029 153.074H113.358C113.358 153.074 113.291 153.089 113.272 153.049C113.252 153.01 113.255 152.966 113.284 152.914C114.067 151.513 115.518 150.537 117.237 150.537Z" fill="black"/>
<path d="M97.0569 145.858C94.0186 145.858 91.3456 147.339 89.644 149.589C88.8712 150.611 88.2936 151.785 87.9941 153.074C87.8358 153.755 87.7355 154.451 87.7355 155.18C87.7355 155.735 87.8024 156.277 87.8956 156.805C88.0068 157.436 88.1812 158.046 88.4126 158.627C88.7234 159.407 89.1453 160.11 89.644 160.77C91.3456 163.02 94.0184 164.501 97.0569 164.501C100.095 164.501 102.768 163.02 104.47 160.77C104.879 160.228 105.242 159.665 105.529 159.046C105.591 158.911 105.582 158.829 105.516 158.726C105.451 158.623 105.27 158.627 105.27 158.627H100.295C100.295 158.627 100.131 158.618 99.9629 158.677C99.7944 158.735 99.7237 158.787 99.6181 158.861C98.8869 159.377 98.0196 159.711 97.0569 159.711C95.9549 159.711 94.9789 159.275 94.1878 158.627C93.6577 158.194 93.2152 157.682 92.9194 157.063C92.8791 156.979 92.9031 156.931 92.9564 156.867C93.0098 156.802 93.1411 156.805 93.1411 156.805H101.305H105.738C105.738 156.805 105.989 156.829 106.144 156.694C106.261 156.593 106.294 156.341 106.304 156.263C106.351 155.908 106.378 155.547 106.378 155.18C106.378 154.451 106.278 153.755 106.12 153.074C105.82 151.785 105.243 150.611 104.47 149.589C102.768 147.339 100.095 145.858 97.0569 145.858ZM97.0569 150.537C98.7557 150.537 100.195 151.49 100.985 152.865C101.024 152.933 101.032 152.985 100.997 153.037C100.962 153.089 100.849 153.074 100.849 153.074H93.178C93.178 153.074 93.1111 153.089 93.0918 153.049C93.0726 153.01 93.075 152.966 93.1042 152.914C93.8871 151.513 95.338 150.537 97.0569 150.537Z" fill="black"/>
<path d="M128.821 145.858C128.433 145.858 128.119 146.172 128.119 146.56V155.18V171.298C128.119 171.686 128.433 172 128.821 172H133.18C133.568 172 133.882 171.686 133.882 171.298V163.799C134.978 164.252 136.181 164.501 137.441 164.501C142.588 164.501 146.762 160.327 146.762 155.18C146.762 150.032 142.588 145.858 137.441 145.858C136.181 145.858 134.978 146.107 133.882 146.56C133.882 146.172 133.568 145.858 133.18 145.858H128.821ZM137.441 151.042C139.733 151.042 141.59 152.887 141.59 155.18C141.59 157.472 139.733 159.329 137.441 159.329C135.174 159.329 133.344 157.511 133.303 155.253V155.106C133.344 152.849 135.174 151.042 137.441 151.042Z" fill="black"/>
</svg>
