<?xml version="1.0" encoding="UTF-8" standalone="no"?>
<!DOCTYPE svg PUBLIC "-//W3C//DTD SVG 1.1//EN" "http://www.w3.org/Graphics/SVG/1.1/DTD/svg11.dtd">
<!-- Created with Vectornator (http://vectornator.io/) -->
<svg height="100%" stroke-miterlimit="10" style="fill-rule:nonzero;clip-rule:evenodd;stroke-linecap:round;stroke-linejoin:round;" version="1.1" viewBox="0 0 947.061 252.59" width="100%" xml:space="preserve" xmlns="http://www.w3.org/2000/svg" xmlns:vectornator="http://vectornator.io" xmlns:xlink="http://www.w3.org/1999/xlink">
<defs/>
<clipPath id="ArtboardFrame">
<rect height="252.59" width="947.061" x="0" y="0"/>
</clipPath>
<g clip-path="url(#ArtboardFrame)" id="Layer-9" vectornator:layerName="Layer 9">
<g opacity="0" vectornator:layerName="Group 2">
<path d="M274.651 85.712L260.01 85.712L260.01 143.486C260.01 152.438 265.608 155.007 273.014 155.007C275.34 155.007 277.923 154.676 279.56 154.178L279.56 144.895C279.043 145.061 278.44 145.061 278.096 145.061C275.512 145.061 274.651 143.735 274.651 141.165L274.651 85.712Z" fill="#292929" fill-rule="nonzero" opacity="1" stroke="none" vectornator:layerName="path"/>
<path d="M292.133 85.714C287.483 85.714 283.866 88.532 283.866 93.671C283.866 98.976 287.483 101.877 292.133 101.877C296.784 101.877 300.659 98.727 300.659 93.671C300.659 88.532 296.784 85.714 292.133 85.714ZM299.454 106.933L284.813 106.933L284.813 154.178L299.454 154.178L299.454 106.933Z" fill="#292929" fill-rule="nonzero" opacity="1" stroke="none" vectornator:layerName="path"/>
<path d="M323.568 113.315L323.568 106.933L309.874 106.933L309.874 154.178L324.515 154.178L324.515 125.168C324.515 119.034 327.787 116.548 332.007 116.548C336.744 116.548 338.811 118.786 338.811 125.168L338.811 154.178L353.452 154.178L353.452 122.184C353.452 111.16 346.648 106.104 337.864 106.104C331.663 106.104 326.582 108.425 323.74 113.315L323.568 113.315Z" fill="#292929" fill-rule="nonzero" opacity="1" stroke="none" vectornator:layerName="path"/>
<path d="M410.808 106.933L393.153 106.933L385.144 117.211C381.096 122.433 379.202 125.582 377.565 128.981L377.135 128.981C377.91 125.665 378.427 122.267 378.427 117.128L378.427 86.147L363.786 86.147L363.786 154.178L378.427 154.178L378.427 139.756L382.044 136.109L393.24 154.178L410.808 154.178L391.689 126.328L410.808 106.933Z" fill="#292929" fill-rule="nonzero" opacity="1" stroke="none" vectornator:layerName="path"/>
<path d="M482.633 106.933L464.978 106.933L456.969 117.211C452.921 122.433 451.027 125.582 449.39 128.981L448.96 128.981C449.735 125.665 450.252 122.267 450.252 117.128L450.252 86.147L435.611 86.147L435.611 154.178L450.252 154.178L450.252 139.756L453.869 136.109L465.065 154.178L482.633 154.178L463.514 126.328L482.633 106.933Z" fill="#292929" fill-rule="nonzero" opacity="1" stroke="none" vectornator:layerName="path"/>
<path d="M526.986 127.489C526.986 115.719 520.699 106.104 505.025 106.104C492.451 106.104 483.064 114.393 483.064 131.301C483.064 146.553 491.418 155.007 506.23 155.007C514.584 155.007 521.56 152.603 525.694 143.071L512.862 139.342C511.828 143.32 509.675 145.475 506.403 145.475C502.01 145.475 498.738 142.574 497.877 134.7L526.986 134.7L526.986 127.489ZM497.963 125.251C498.91 117.708 502.183 115.553 505.8 115.553C510.02 115.553 513.292 118.786 513.378 125.251L497.963 125.251Z" fill="#292929" fill-rule="nonzero" opacity="1" stroke="none" vectornator:layerName="path"/>
<path d="M576.075 127.489C576.075 115.719 569.788 106.104 554.114 106.104C541.54 106.104 532.153 114.393 532.153 131.301C532.153 146.553 540.507 155.007 555.319 155.007C563.673 155.007 570.649 152.603 574.783 143.071L561.951 139.342C560.917 143.32 558.764 145.475 555.492 145.475C551.1 145.475 547.827 142.574 546.966 134.7L576.075 134.7L576.075 127.489ZM547.052 125.251C547.999 117.708 551.272 115.553 554.889 115.553C559.109 115.553 562.381 118.786 562.468 125.251L547.052 125.251Z" fill="#292929" fill-rule="nonzero" opacity="1" stroke="none" vectornator:layerName="path"/>
<path d="M597.605 112.818C598.122 111.16 598.466 108.756 598.466 107.181L598.466 106.933L583.826 106.933L583.826 173.242L598.466 173.242L598.466 161.224C598.466 155.256 598.036 152.189 597.174 148.708L597.519 148.708C600.361 152.769 604.581 155.007 610.179 155.007C622.236 155.007 630.848 144.895 630.848 130.721C630.848 114.807 623.872 106.104 611.04 106.104C605.356 106.104 600.878 108.508 597.863 112.818L597.605 112.818ZM607.164 144.895C601.05 144.895 598.208 140.253 598.208 130.804C598.208 121.438 601.394 116.382 606.734 116.382C612.332 116.382 615.949 121.438 615.949 130.721C615.949 139.922 612.332 144.895 607.164 144.895Z" fill="#292929" fill-rule="nonzero" opacity="1" stroke="none" vectornator:layerName="path"/>
<path d="M679.937 127.489C679.937 115.719 673.65 106.104 657.976 106.104C645.402 106.104 636.015 114.393 636.015 131.301C636.015 146.553 644.369 155.007 659.182 155.007C667.535 155.007 674.511 152.603 678.645 143.071L665.813 139.342C664.779 143.32 662.626 145.475 659.354 145.475C654.962 145.475 651.689 142.574 650.828 134.7L679.937 134.7L679.937 127.489ZM650.914 125.251C651.861 117.708 655.134 115.553 658.751 115.553C662.971 115.553 666.243 118.786 666.33 125.251L650.914 125.251Z" fill="#292929" fill-rule="nonzero" opacity="1" stroke="none" vectornator:layerName="path"/>
<path d="M699.572 119.366L699.572 106.933L687.688 106.933L687.688 154.178L702.414 154.178L702.414 128.649C702.414 119.2 706.204 117.625 712.577 117.625C713.868 117.625 715.419 117.708 716.71 117.957L716.71 106.187C715.419 105.938 713.868 105.855 712.577 105.855C705.687 105.855 701.381 110.414 700.003 119.366L699.572 119.366Z" fill="#292929" fill-rule="nonzero" opacity="1" stroke="none" vectornator:layerName="path"/>
</g>
<path d="M23.8068 0C10.6618 0 0 10.662 0 23.807C0 25.408 0 227.182 0 228.783C0 241.928 10.6618 252.59 23.8068 252.59L923.228 252.59C940.741 252.59 952.261 234.297 944.701 218.499L904.516 134.556C901.479 128.211 901.531 120.811 904.658 114.511L944.416 34.377C952.268 18.556 940.748 0 923.085 0L23.8068 0ZM23.8068 19.807L923.085 19.807C926.049 19.807 928.021 22.961 926.704 25.616L886.899 105.75C881.063 117.508 880.994 131.285 886.661 143.126L926.799 227.069C928.067 229.72 926.167 232.783 923.228 232.783L23.8068 232.783C21.601 232.783 19.8072 230.989 19.8073 228.783L19.8073 23.807C19.8073 21.601 21.601 19.807 23.8068 19.807Z" fill="#292929" fill-rule="nonzero" opacity="1" stroke="none" vectornator:layerName="Curve 28"/>
<g opacity="1" vectornator:layerName="Group 3">
<path d="M104.718 70.197C103.22 70.197 102.004 71.413 102.004 72.911L102.004 160.616C102.004 168.321 108.25 174.567 115.955 174.566L124.288 174.566L129.144 174.566C130.643 174.566 131.858 173.351 131.858 171.852L131.858 162.996C131.858 161.497 130.643 160.282 129.144 160.282L128.668 160.282C126.254 160.282 124.288 158.316 124.288 155.902L124.288 72.911C124.288 71.413 123.073 70.197 121.574 70.197L104.718 70.197Z" fill="#292929" fill-rule="nonzero" opacity="1" stroke="none" vectornator:layerName="Curve 13"/>
<path d="M262.891 70.197C261.392 70.197 260.177 71.413 260.177 72.911L260.177 171.852C260.177 173.351 261.392 174.566 262.891 174.566L279.889 174.566C281.388 174.566 282.603 173.351 282.603 171.852L282.603 150.702C282.603 148.044 286.027 146.971 287.545 149.153L304.409 173.402C304.917 174.132 305.749 174.566 306.638 174.566L326.977 174.566C329.169 174.566 330.456 172.103 329.206 170.304L303.932 133.942C303.187 132.871 303.31 131.421 304.224 130.491L327.206 107.095C328.892 105.379 327.676 102.479 325.27 102.479L305.974 102.479C305.248 102.479 304.551 102.771 304.041 103.289L287.25 120.331C285.546 122.061 282.603 120.854 282.603 118.427L282.603 72.911C282.603 71.413 281.388 70.197 279.889 70.197L262.891 70.197Z" fill="#292929" fill-rule="nonzero" opacity="1" stroke="none" vectornator:layerName="Curve 15"/>
<path d="M372.45 70.197C370.951 70.197 369.736 71.413 369.736 72.911L369.736 171.852C369.736 173.351 370.951 174.566 372.45 174.566L389.448 174.566C390.947 174.566 392.162 173.351 392.162 171.852L392.162 150.702C392.162 148.044 395.586 146.971 397.104 149.153L413.968 173.402C414.476 174.132 415.308 174.566 416.196 174.566L436.536 174.566C438.727 174.566 440.015 172.103 438.764 170.304L413.49 133.942C412.746 132.871 412.869 131.421 413.783 130.491L436.765 107.095C438.451 105.379 437.235 102.479 434.829 102.479L415.533 102.479C414.806 102.479 414.11 102.771 413.6 103.289L396.809 120.331C395.105 122.061 392.162 120.854 392.162 118.427L392.162 72.911C392.162 71.413 390.947 70.197 389.448 70.197L372.45 70.197Z" fill="#292929" fill-rule="nonzero" opacity="1" stroke="none" vectornator:layerName="Curve 16"/>
<path d="M150.937 70.201C144.137 70.201 138.625 75.745 138.625 82.545C138.625 89.345 144.137 94.826 150.937 94.826C157.737 94.826 163.25 89.345 163.25 82.545C163.25 75.745 157.737 70.201 150.937 70.201ZM142.469 102.483C140.97 102.483 139.75 103.702 139.75 105.201L139.75 171.857C139.75 173.356 140.97 174.576 142.469 174.576L159.437 174.576C160.936 174.576 162.156 173.356 162.156 171.857L162.156 105.201C162.156 103.702 160.936 102.483 159.437 102.483L142.469 102.483Z" fill="#292929" fill-rule="nonzero" opacity="1" stroke="none" vectornator:layerName="Curve 28"/>
<path d="M180.71 102.479C179.211 102.479 177.996 103.695 177.996 105.193L177.996 112.24L177.996 124.81L177.996 171.852C177.996 173.351 179.211 174.566 180.71 174.566L197.565 174.566C199.064 174.566 200.279 173.351 200.279 171.852L200.279 135.714C200.279 129.692 205.161 124.81 211.182 124.81C217.204 124.81 222.086 129.692 222.086 135.714L222.086 171.852C222.086 173.351 223.301 174.566 224.8 174.566L241.703 174.566C243.202 174.566 244.417 173.351 244.417 171.852L244.417 124.81C244.417 112.477 234.419 102.479 222.086 102.479L210.04 102.479C204.657 102.479 200.279 102.479 200.279 102.479L180.71 102.479Z" fill="#292929" fill-rule="nonzero" opacity="1" stroke="none" vectornator:layerName="Curve 18"/>
<path d="M756.31 102.479C754.811 102.479 753.596 103.695 753.596 105.193L753.596 171.852C753.596 173.351 754.811 174.566 756.31 174.566L773.404 174.566C774.903 174.566 776.118 173.351 776.118 171.852L776.118 127.762C776.118 126.263 777.333 125.048 778.832 125.048L795.163 125.048C796.662 125.048 797.877 123.833 797.877 122.334L797.877 104.169C797.877 104.169 797.97 103.302 797.523 102.898C797.076 102.493 796.679 102.504 796.09 102.552C784.92 103.463 776.118 112.837 776.118 124.239L776.118 105.193C776.118 103.695 774.903 102.479 773.404 102.479L756.31 102.479Z" fill="#292929" fill-rule="nonzero" opacity="1" stroke="none" vectornator:layerName="Curve 21"/>
<path d="M710.681 102.464C698.932 102.464 688.597 108.191 682.017 116.891C679.029 120.843 676.796 125.382 675.637 130.366C675.025 132.998 674.637 135.689 674.637 138.508C674.637 140.654 674.896 142.75 675.256 144.793C675.686 147.235 676.361 149.594 677.256 151.84C678.458 154.855 680.089 157.575 682.017 160.124C688.596 168.824 698.932 174.552 710.681 174.551C722.429 174.551 732.765 168.824 739.344 160.124C740.928 158.03 742.329 155.851 743.439 153.459C743.68 152.938 743.646 152.618 743.391 152.221C743.137 151.823 742.439 151.84 742.439 151.84L723.203 151.84C723.203 151.84 722.569 151.803 721.918 152.03C721.267 152.257 720.993 152.456 720.584 152.744C717.757 154.739 714.403 156.03 710.681 156.03C706.42 156.03 702.646 154.342 699.587 151.84C697.538 150.163 695.827 148.183 694.683 145.793C694.527 145.467 694.619 145.281 694.825 145.031C695.032 144.781 695.54 144.793 695.54 144.793L727.107 144.793L744.248 144.793C744.248 144.793 745.218 144.884 745.82 144.364C746.271 143.974 746.399 143 746.439 142.698C746.619 141.324 746.724 139.927 746.724 138.508C746.724 135.689 746.336 132.998 745.724 130.366C744.566 125.382 742.333 120.843 739.344 116.891C732.765 108.191 722.429 102.464 710.681 102.464ZM710.681 120.558C717.249 120.558 722.817 124.24 725.869 129.557C726.02 129.82 726.052 130.023 725.917 130.223C725.782 130.423 725.346 130.366 725.346 130.366L695.682 130.366C695.682 130.366 695.424 130.424 695.349 130.271C695.275 130.118 695.284 129.949 695.397 129.747C698.424 124.33 704.034 120.558 710.681 120.558Z" fill="#292929" fill-rule="nonzero" opacity="1" stroke="none" vectornator:layerName="Curve 26"/>
<path d="M553.328 102.464C541.58 102.464 531.244 108.191 524.665 116.891C521.676 120.843 519.443 125.382 518.285 130.366C517.672 132.998 517.285 135.689 517.285 138.508C517.285 140.654 517.544 142.75 517.904 144.793C518.334 147.235 519.008 149.594 519.903 151.84C521.105 154.855 522.736 157.575 524.665 160.124C531.244 168.824 541.58 174.552 553.328 174.551C565.076 174.551 575.413 168.824 581.991 160.124C583.575 158.03 584.977 155.851 586.086 153.459C586.328 152.938 586.293 152.618 586.039 152.221C585.784 151.823 585.086 151.84 585.086 151.84L565.85 151.84C565.85 151.84 565.216 151.803 564.565 152.03C563.914 152.257 563.641 152.456 563.232 152.744C560.405 154.739 557.051 156.03 553.328 156.03C549.068 156.03 545.293 154.342 542.234 151.84C540.185 150.163 538.474 148.183 537.33 145.793C537.174 145.467 537.267 145.281 537.473 145.031C537.679 144.781 538.187 144.793 538.187 144.793L569.755 144.793L586.896 144.793C586.896 144.793 587.866 144.884 588.467 144.364C588.919 143.974 589.046 143 589.086 142.698C589.267 141.324 589.371 139.927 589.372 138.508C589.372 135.689 588.984 132.998 588.372 130.366C587.213 125.382 584.98 120.843 581.991 116.891C575.412 108.191 565.077 102.464 553.328 102.464ZM553.328 120.558C559.897 120.558 565.465 124.24 568.517 129.557C568.668 129.82 568.7 130.023 568.564 130.223C568.429 130.423 567.993 130.366 567.993 130.366L538.33 130.366C538.33 130.366 538.071 130.424 537.997 130.271C537.922 130.118 537.932 129.949 538.044 129.747C541.072 124.33 546.682 120.558 553.328 120.558Z" fill="#292929" fill-rule="nonzero" opacity="1" stroke="none" vectornator:layerName="Curve 27"/>
<path d="M475.298 102.464C463.55 102.464 453.214 108.191 446.635 116.891C443.646 120.843 441.413 125.382 440.254 130.366C439.642 132.998 439.254 135.689 439.255 138.508C439.255 140.654 439.514 142.75 439.873 144.793C440.304 147.235 440.978 149.594 441.873 151.84C443.075 154.855 444.706 157.575 446.635 160.124C453.214 168.824 463.549 174.552 475.298 174.551C487.046 174.551 497.383 168.824 503.961 160.124C505.545 158.03 506.946 155.851 508.056 153.459C508.298 152.938 508.263 152.618 508.009 152.221C507.754 151.823 507.056 151.84 507.056 151.84L487.82 151.84C487.82 151.84 487.186 151.803 486.535 152.03C485.884 152.257 485.611 152.456 485.202 152.744C482.374 154.739 479.021 156.03 475.298 156.03C471.037 156.03 467.263 154.342 464.204 151.84C462.155 150.163 460.444 148.183 459.3 145.793C459.144 145.467 459.237 145.281 459.443 145.031C459.649 144.781 460.157 144.793 460.157 144.793L491.725 144.793L508.866 144.793C508.866 144.793 509.835 144.884 510.437 144.364C510.889 143.974 511.016 143 511.056 142.698C511.237 141.324 511.341 139.927 511.341 138.508C511.341 135.689 510.953 132.998 510.342 130.366C509.183 125.382 506.95 120.843 503.961 116.891C497.382 108.191 487.046 102.464 475.298 102.464ZM475.298 120.558C481.867 120.558 487.435 124.24 490.487 129.557C490.638 129.82 490.67 130.023 490.534 130.223C490.399 130.423 489.963 130.366 489.963 130.366L460.3 130.366C460.3 130.366 460.041 130.424 459.966 130.271C459.892 130.118 459.901 129.949 460.014 129.747C463.042 124.33 468.652 120.558 475.298 120.558Z" fill="#292929" fill-rule="nonzero" opacity="1" stroke="none" vectornator:layerName="Curve 24"/>
<path d="M598.122 102.464C596.623 102.464 595.408 103.679 595.408 105.178L595.408 138.508L595.408 200.834C595.408 202.333 596.623 203.548 598.122 203.548L614.977 203.548C616.476 203.548 617.691 202.333 617.691 200.834L617.691 171.837C621.929 173.589 626.582 174.551 631.452 174.551C651.355 174.551 667.495 158.412 667.495 138.508C667.495 118.604 651.355 102.464 631.452 102.464C626.582 102.464 621.929 103.427 617.691 105.178C617.691 103.679 616.476 102.464 614.977 102.464L598.122 102.464ZM631.452 122.51C640.315 122.51 647.497 129.645 647.497 138.508C647.497 147.371 640.315 154.554 631.452 154.554C622.687 154.554 615.61 147.522 615.454 138.794L615.454 138.222C615.61 129.495 622.687 122.51 631.452 122.51Z" fill="#292929" fill-rule="nonzero" opacity="1" stroke="none" vectornator:layerName="Curve 25"/>
</g>
</g>
</svg>
